<svg width="944" height="1026" viewBox="0 0 944 1026" fill="none" xmlns="http://www.w3.org/2000/svg">
<g clip-path="url(#clip0_1787_9142)">
<path d="M742.525 894.35C733.035 881.555 719.05 872.698 705.299 877.207C689.242 882.481 670.806 913.711 662.52 921.804C655.278 928.899 646.287 933.6 635.856 935.627C621.783 938.359 608.414 938.315 595.487 931.103C590.183 928.135 587.436 923.92 586.408 918.264C584.659 908.745 586.966 899.697 590.095 890.839C590.404 889.972 592.622 889.106 593.738 889.341C604.125 891.427 614.202 890.031 624.119 886.888C643.29 880.806 660.669 871.302 676.285 858.699C689.081 848.372 699.805 836.194 706.959 821.211C710.705 813.382 712.88 805.156 711.675 796.386C709.369 779.582 697.028 766.449 679.018 762.042C661.697 757.812 645.038 761.117 628.967 767.727C606.211 777.07 586.731 791.274 571.027 810.135C563.99 818.582 551.194 841.703 546.581 852.632C540.881 866.161 535.064 897.89 540.47 925.271C545.509 950.772 560.508 968.722 584.762 978.696C599.776 984.881 615.407 986.82 631.449 985.424C651.649 983.691 671.158 977.272 688.258 966.328C707.914 953.754 722.546 935.216 737.883 917.985C741.526 913.887 745.375 909.304 745.552 903.824C745.669 900.196 744.509 897.023 742.511 894.335L742.525 894.35ZM601.994 844.479C607.445 833.947 614.673 824.722 624.089 817.421C632.992 810.532 647.198 802.614 656.497 803.231C663.372 803.687 671.805 812.148 668.249 820.359C664.004 830.172 652.868 838.545 644.744 845.126C631.846 855.54 618.33 858.067 602.391 858.067C600.995 857.612 599.189 855.247 599.321 853.954C599.644 850.737 600.511 847.358 601.994 844.494V844.479Z" fill="black"/>
<path d="M526.352 879.969C519.374 872.918 511.441 873.183 504.904 880.704C496.956 889.841 494.077 900.681 494.459 912.58C494.532 914.769 494.459 916.943 494.459 919.131C494.121 919.205 493.768 919.278 493.43 919.337C492.828 917.971 492.138 916.634 491.623 915.239C485.879 899.477 482.838 883.142 481.325 866.484C481.061 863.561 480.738 860.638 480.135 857.774C479.606 855.291 480.532 854.674 482.853 854.145C491.8 852.118 500.893 850.429 509.502 847.388C521.049 843.305 529.246 835.416 535.108 824.15C537.253 820.022 538.031 813.867 536.709 809.019C533.771 798.267 530.789 791.627 523.429 783.342C519.844 779.303 508.797 772.531 502.436 770.651C495.854 768.697 489.332 766.288 482.486 765.598C478.798 765.23 477.55 764.702 477.755 760.618C478.652 742.785 479.357 724.923 479.695 707.075C479.856 698.188 479.21 689.286 478.666 680.399C477.77 665.68 470.337 655.368 456.968 649.36C446.391 644.616 435.417 647.568 429.306 657.395C426.323 662.184 423.606 667.619 422.651 673.098C419.727 689.756 417.2 706.531 415.54 723.366C414.086 738.084 413.895 752.935 413.454 767.728C413.337 771.87 411.912 773.662 407.916 774.955C395.899 778.862 384.602 784.268 375.596 793.493C360.788 808.638 361.214 826.661 376.801 840.866C387.437 850.546 399.866 856.628 414.204 858.552C416.789 858.905 418.831 859.228 419.419 862.709C424.766 894.908 433.581 926.241 444.129 957.089C447.449 966.798 450.945 976.523 455.44 985.718C461.757 998.616 473.657 1003.21 487.304 998.954C498.91 995.325 515.746 984 523.723 958.014C527.16 946.821 529.437 935.29 532.229 923.905C534.682 911.272 535.931 892.411 531.597 886.095C529.966 884.068 528.306 881.894 526.382 879.955L526.352 879.969Z" fill="black"/>
<path d="M123.343 337.269C113.662 338.356 105.582 352.928 95.3718 355.572C83.1051 359.009 70.1039 355.645 59.5707 348.521C50.4331 342.249 42.9408 333.802 35.7865 325.385C21.0664 308.478 10.5773 289.146 9.87214 266.539C8.50591 244.182 11.5909 221.81 15.2636 199.805C22.6971 150.552 37.946 102.899 61.172 58.8898C66.9013 48.5779 76.2446 38.7947 88.0412 37.0467C104.407 34.0647 112.472 48.2841 108.902 63.1498C105.758 77.8392 97.7517 90.7365 91.9195 104.515C81.2247 134.1 69.1049 163.611 62.5088 194.414C59.2769 211.689 60.2758 229.61 64.0513 246.723C67.9737 267.612 86.8072 281.934 102.262 261.192C113.162 246.474 111.12 225.953 121.374 210.94C132.965 194.649 155.324 204.021 160.334 220.914C164.036 231.006 163.228 243.095 167.415 253.304C170.955 263.322 184.853 276.117 193.197 268.243C206.903 255.302 212.207 234.722 213.749 218.05C215.674 197.264 214.366 169.56 209.562 149.215C207.682 141.018 203.951 133.204 199.206 126.432C192.433 116.546 183.736 107.145 182.899 94.5851C180.431 71.0967 199.117 51.0751 221.888 64.3543C246.113 79.2641 262.199 106.043 264.873 134.305C268.061 169.575 269.985 205.461 266.841 240.745C261.318 273.796 250.77 307.273 229.571 333.802C208.255 361.712 182.62 378.928 150.374 358.862C143.043 354.411 132.334 337.372 123.519 337.269H123.328H123.343Z" fill="black"/>
<path d="M309.782 512.044C313.058 513.101 316.907 510.663 320.095 508.724C323.753 506.403 327.411 503.597 331.201 501.335C341.837 494.739 355.367 490.641 366.929 493.594C380.724 496.737 388.48 509.326 393.798 521.974C398.514 533.079 403.244 544.067 408.004 555.128C413.425 569.244 420.682 575.943 436.122 575.663C470.322 574.253 434.961 550.75 457.85 498.955C463.623 484.912 472.085 472.191 481.751 460.528C500.482 436.834 527.381 417.767 558.584 417.752C577.784 417.194 598.131 425.567 608.943 441.711C618.712 456.004 617.199 474.791 610.985 490.244C603.508 508.386 592.064 525.484 576.932 537.912C566.707 546.226 555.366 553.042 544.422 560.357C518.493 576.883 517.978 581.892 548.976 585.358C561.375 587.048 573.95 587.518 586.452 586.798C597.866 586.401 608.782 582.641 618.36 576.53C628.834 570.199 642.159 559.843 651.282 571.624C654.807 576.897 655.278 585.3 658.803 590.25C661.169 594.26 662.491 595.009 659.141 598.006C651.399 604.205 640.425 614.135 631.802 620.598C622.077 627.899 610.471 631.748 598.248 633.672C583.484 636.345 568.926 635.302 554.397 632.732C542.923 630.881 531.626 628.868 521.152 623.948C511.691 619.629 503.244 612.431 494.047 607.143C467.825 591.19 446.347 606.643 421.02 613.151C405.419 617.19 389.523 609.376 379.636 597.345C368.281 585.843 362.272 558.756 342.704 561.459C322.196 567.467 327.411 594.995 321.329 611.432C317.95 622.523 306.712 632.085 294.724 629.104C270.705 622.978 269.544 575.663 265.402 555.201C262.449 536.575 258.159 518.184 253.649 499.881C249.874 482.856 243.85 463.466 251.372 446.852C260.275 428.534 278.623 433.382 288.172 448.042C297.501 461.336 301.203 477.979 303.23 494.02C304.317 499.675 304.17 509.209 309.65 512L309.782 512.044ZM563.138 476.231C558.202 469.929 545.377 473.822 538.369 475.32C521.21 479.933 503.934 488.776 493.871 502.819C487.833 511.265 483.823 521.342 482.691 531.683C480.591 550.03 488.832 558.227 504.992 546.417C523.517 533.108 539.765 517.097 553.53 499.014C557.54 493.035 566.237 483.62 563.226 476.363L563.152 476.231H563.138Z" fill="black"/>
<path d="M246.289 927.739C246.994 917.016 247.406 906.307 248.493 895.569C250.638 876.635 253.679 857.906 254.031 838.839C254.795 812.089 255.015 785.281 252.621 758.605C250.77 739.098 248.875 719.326 241.617 701.067C231.54 674.611 205.155 663.668 193.315 696.234C187.027 714.581 186.983 734.75 186.909 754.066C187.012 768.741 187.82 783.401 188.658 798.046C192.154 845.963 189.568 894.512 196.517 942.105C199.279 957.397 201.189 974.613 209.386 987.863C218.186 1001.76 232.318 999.585 238.283 985.028C242.837 974.114 243.41 961.613 244.6 949.95C245.217 942.634 245.804 935.334 246.274 928.033V927.754L246.289 927.739Z" fill="black"/>
<path d="M432.684 1001.35C430.187 983.309 411.412 967.988 402.201 960.452C390.522 950.904 387.408 938.947 384.719 926.843C383.397 920.909 382.545 912.212 382.824 906.263C383.265 896.935 384.029 887.549 383.338 878.28C382.751 870.259 381.517 861.901 378.491 854.542C373.569 842.585 365.328 832.684 354.839 824.81C348.507 820.066 341.485 816.702 333.655 818.259C322.989 820.374 312.221 822.695 302.819 828.777C290.258 836.9 279.71 844.95 272.321 857.568C266.562 867.395 259.393 885.125 256.117 907.453C253.458 925.609 257.601 950.287 262.052 959.409C266.504 968.532 274.01 977.566 279.255 982.913C287.923 991.756 299.528 995.075 311.648 992.71C322.945 990.507 340.662 976.449 345.863 972.277C348.331 970.294 350.696 968.179 353.56 965.741C354.06 967.547 354.457 968.884 354.809 970.25C359.158 986.658 367.649 1000.8 379.695 1012.51C391.301 1023.79 404.611 1029.93 421.035 1022C429.452 1017.95 433.948 1010.56 432.67 1001.33L432.684 1001.35ZM324.282 920.086C322.299 929.311 319.258 938.315 316.613 947.379C316.187 948.848 315.277 950.184 314.469 951.874C308.328 948.804 303.759 944.794 301.291 938.697C296.458 926.799 294.974 914.46 297.222 901.827C299.925 886.623 304.846 872.154 312.338 858.611C313.367 856.76 314.601 855.041 316.584 851.956C318.553 856.055 320.286 858.993 321.447 862.151C328.439 881.144 328.483 900.593 324.297 920.086H324.282Z" fill="black"/>
<path d="M442.072 116.972C450.284 119.616 458.76 127.519 464.622 134.687C475.464 148.069 482.706 163.684 486.188 180.43C491.829 201.891 494.062 224.058 498.146 245.754C500.306 254.7 501.466 264.174 504.771 272.724C507.328 279.348 511.515 285.489 510.736 292.936C509.752 302.455 500.585 310.417 491.227 310.931C480.84 311.504 472.276 305.128 466.003 297.519C448.918 276.822 451.062 248.031 444.613 223.338C441.895 209.515 430.378 188.979 416.378 204.976C406.961 216.948 400.086 231.05 394.121 244.975C383.103 273.223 380.577 307.581 358.276 329.953C345.363 341.573 334.389 342.351 325.046 329.924C313.234 314.206 302.775 272.077 299.293 233.899C298.294 222.956 296.517 193.9 295.679 182.942C292.3 143.06 290.581 102.561 295.503 62.7531C297.222 51.4423 303.215 39.5145 314.733 36.1359C322.196 33.7268 330.584 35.4014 336.549 40.528C356.998 59.3452 350.578 90.3398 346.803 114.856C344.908 139.931 344.952 165.197 344.584 190.287C344.819 203.492 349.374 192.431 351.798 187.172C362.669 164.183 376.992 139.182 399.028 125.594C411.442 119.263 428.321 114.298 441.881 116.884L442.057 116.928L442.072 116.972Z" fill="black"/>
<path d="M781.338 302.132C775.888 321.977 769.365 348.256 748.02 355.968C715.994 366.75 688.449 345.833 674.728 317.82C664.768 296.564 659.802 272.87 657.114 249.749C654.572 221.12 657.378 192.27 660.14 163.787C661.389 143.368 644.171 144.22 632.36 132.704C625.103 125.095 623.237 113.946 626.161 103.428C629.598 90.5454 639.514 79.8221 651.59 74.1667C657.275 71.3757 663.548 69.5101 669.175 66.8073C674.508 64.2954 679.282 60.814 682.426 55.8049C688.185 47.0059 688.89 33.1979 694.531 22.9447C701.847 7.90273 719.006 -2.51206 735.768 0.587403C749.342 2.98178 755.776 15.0418 755.086 28.086C755.145 37.3697 751.839 47.241 754.19 56.275C758.538 70.9644 787.876 66.3078 799.305 81.3498C804.329 87.9747 803.668 96.142 801.2 103.942C798.423 113.505 793.047 123.303 784.791 129.56C751.002 157.926 718.051 142.09 711.631 181.106C707.518 208.031 708.399 236.646 715.73 263.072C718.256 271.064 726.072 288.647 736.135 280.817C741.82 275.191 743.187 266.231 748.02 258.783C753.72 248.853 767 242.522 774.757 254.038C783.233 267.656 784.085 286.326 781.382 301.911L781.324 302.19L781.338 302.132Z" fill="black"/>
<path d="M112.149 654.237C151.108 655.955 172.557 684.247 177.361 720.794C180.475 739.905 177.346 759.31 167.4 775.806C157.234 792.817 140.002 808.27 125.341 823.297C113.045 835.21 100.499 844.127 94.3435 858.713C86.2637 878.515 97.5314 898.918 104.436 917.471C112.046 939.755 139.033 979.857 118.804 999.482C92.992 1018.64 63.8457 974.569 51.7553 954.885C36.3594 929.237 26.5461 900.637 18.5396 871.89C8.09458 832.566 -2.24766 791.891 0.411354 751.084C3.61392 691.563 54.0911 652.827 111.84 654.222H112.134L112.149 654.237ZM43.3375 783.136C44.6009 799.398 53.3125 818.406 72.425 810.694C89.76 802.982 101.895 784.429 112.81 769.123C123.167 753.126 134.096 736.923 135.551 718.885C137.02 703.035 126.178 690.549 111.341 686.935C81.2982 679.268 57.279 701.478 49.5076 729.887C44.3659 747.044 41.6775 765.318 43.3081 782.828L43.3375 783.136Z" fill="black"/>
<path d="M736.341 785.266C739.073 747.808 752.882 711.951 772.979 680.266C781.632 666.091 793.37 652.048 796.058 635.331C798.394 618.967 781.485 613.591 768.131 614.678C760.184 615.148 752.471 617.44 745.214 620.745C718.888 632.996 685.129 662.786 701.436 694.265C703.345 698.951 706.401 703.946 704.873 708.94C700.202 718.238 686.848 713.127 679.987 707.471C668.999 697.321 661.271 678.562 663.387 663.873C666.296 646.995 677.666 633.216 687.186 619.496C695.559 607.451 707.121 598.931 719.49 590.911C741.291 575.252 766.897 566.394 793.458 562.222C819.402 558.653 849.532 557.478 870.775 575.208C891.9 592.38 891.636 618.483 885.525 642.764C880.133 661.537 866.471 677.167 856.143 693.648C846.33 708.279 836.766 723.115 826.027 737.1C818.506 747.191 809.721 756.431 802.772 766.978C792.371 782.505 789.447 802.247 795.559 820.065C797.439 825.662 801.655 830.994 803.786 836.121C812.615 861.269 733.549 847.667 736.326 785.545V785.252L736.341 785.266Z" fill="black"/>
<path d="M617.111 186.394C619.359 192.799 620.652 199.556 620.975 206.328C621.445 215.788 618.654 225.115 619.609 234.546C621.636 254.553 633.609 271.784 643.202 288.838C650.547 302.058 632.918 324.093 616.759 324.093C597.661 324.093 590.315 302.058 575.625 294.714C568.279 293.245 559.465 300.59 550.651 299.121C534.491 296.183 519.8 284.431 514.732 268.537C513.233 264.454 512.234 260.105 511.177 255.816C509.737 249.838 509.208 243.83 509.223 237.822C509.223 234.81 509.384 231.799 509.619 228.788C509.517 222.721 510.986 216.845 512.043 210.411C512.69 207.312 513.498 204.256 514.482 201.245C518.36 189.214 524.883 178.095 534.623 169.648C547.242 157.662 559.098 149.788 578.886 152.373C595.898 154.606 608.84 166.828 615.466 182.193C616.053 183.559 616.597 184.954 617.096 186.365L617.111 186.394ZM556.233 245.313C562.418 246.239 571.423 241.641 572.892 238.703C581.707 226.951 584.645 204.917 569.954 199.042C559.671 196.104 547.918 200.511 543.511 209.324C540.573 216.669 539.104 224.014 540.573 232.827C542.042 241.641 550.856 246.048 559.024 245.137L556.233 245.313Z" fill="black"/>
<path d="M223.151 547.695C222.446 562.605 238.239 582.861 241.221 597.536C245.613 613.988 230.218 628.061 214.175 621.818C198.383 615.604 188.437 600.459 180.666 585.99C174.716 574.062 171.499 550.427 159.996 543.949C150.359 538.279 137.813 541.995 130.306 533.255C120.978 523.252 120.89 513.395 128.72 502.496C136.785 490.817 152.886 486.411 158.512 472.749C162.949 462.526 163.507 448.571 170.853 438.949C181.753 422.747 204.465 419.735 214.866 438.112C216.555 441.035 217.789 444.252 218.465 447.572C220.683 457.987 216.658 467.946 219.949 477.23C224.003 487.424 236.123 492.375 243.057 499.381C249.991 506.388 252.4 517.611 244.512 524.427C239.164 529.039 233.009 529.289 227.705 533.593C224.385 536.296 223.357 543.347 223.137 547.695H223.151Z" fill="black"/>
<path d="M778.679 964.463C778.15 940.49 793.458 909.172 821.767 919.161C847.094 928.988 853.234 955.576 842.569 978.829C822.913 1023.09 779.605 1010.88 778.694 964.757V964.463H778.679Z" fill="black"/>
<path d="M861.109 794.242C861.858 755.623 866.441 707.795 884.893 673.466C893.193 658.027 909.867 647.377 925.292 659.305C933.651 666.003 937.25 677.211 939.513 687.611C948.65 722.646 938.881 753.655 931.168 787.867C927.76 802.571 924.278 817.26 920.767 831.95C917.58 844.685 914.979 858.141 908.912 869.775C899.481 887.593 884.379 883.568 875.829 868.247C863.621 846.345 861.652 819.214 861.123 794.565V794.257L861.109 794.242Z" fill="black"/>
<path d="M871.113 981.458C871.084 965.212 880.383 945.91 894.501 938.169C909.544 931.367 925.101 945.91 930.786 959.101C935.458 970.471 933.563 985.087 927.731 996.251C922.031 1008.05 910.866 1021.18 896.645 1017.83C880.309 1014.29 870.966 998.19 871.098 981.767V981.458H871.113Z" fill="black"/>
</g>
<defs>
<clipPath id="clip0_1787_9142">
<rect width="943.2" height="1025.6" fill="white"/>
</clipPath>
</defs>
</svg>
